<?xml version="1.0" encoding="utf-8"?>
<!-- Generator: Adobe Illustrator 21.0.0, SVG Export Plug-In . SVG Version: 6.00 Build 0)  -->
<svg version="1.1" id="图层_1" xmlns="http://www.w3.org/2000/svg" xmlns:xlink="http://www.w3.org/1999/xlink" x="0px" y="0px"
	 viewBox="0 0 300.8 77" style="enable-background:new 0 0 300.8 77;" xml:space="preserve">
<style type="text/css">
	.st0{fill:#333333;}
	.st1{fill:#FFD100;}
</style>
<path id="XMLID_2494_" class="st0" d="M86.6,46.8h19c0.8,0,1.6,0.1,2.2,0.2s1.2,0.5,1.6,1.1s0.7,1.2,0.9,1.9
	c0.2,0.6,0.3,1.5,0.4,2.5s0.1,1.8,0,2.4c-0.2,1.1-0.5,1.7-0.8,2.1l-1.6,1.6c0.7,0.4,1.3,0.7,1.7,1.1c0.4,0.3,0.7,0.8,1,1.4
	c0.3,0.6,0.4,1.3,0.5,2.1s0,1.8-0.1,2.9c-0.1,0.8-0.2,1.5-0.5,2.1c-0.2,0.6-0.7,1.1-1.4,1.6c-0.7,0.5-1.3,0.7-1.8,0.9
	c-0.5,0.1-1.5,0.2-2.8,0.2H86.6V46.8z M92.9,51.9v4.5h8.9c0.6,0,1-0.2,1.4-0.7s0.5-1,0.5-1.4s-0.2-0.9-0.5-1.5s-0.7-0.8-1.4-0.8
	L92.9,51.9L92.9,51.9z M92.9,60.9v4.7h9.4c0.7,0,1.2-0.2,1.6-0.5s0.5-0.9,0.5-1.7c0-0.5-0.2-1-0.5-1.6s-0.8-0.8-1.6-0.8L92.9,60.9
	L92.9,60.9z"/>
<path id="XMLID_2498_" class="st0" d="M132.7,45.3l1.3,1.3l0.5,1.8l-0.5,1.8c-0.3,0.5-0.8,1-1.3,1.3s-1.1,0.5-1.8,0.5
	c-0.6,0-1.2-0.2-1.8-0.5s-1-0.8-1.3-1.3l-0.5-1.8l0.5-1.8l1.3-1.3l1.8-0.5L132.7,45.3z M128,53h6.2v15l-6.2,2.4V53z"/>
<path id="XMLID_2501_" class="st0" d="M166.6,51.3h6.3V68c0,1-0.1,2-0.3,3s-0.5,1.7-0.9,2.2s-0.8,0.9-1.3,1.2s-1.2,0.6-2.1,0.9
	s-2,0.4-3,0.4H161c-0.8,0-1.6-0.1-2.3-0.2s-1.4-0.3-2-0.6c-0.6-0.3-1.1-0.7-1.5-1.1c-0.4-0.5-0.7-0.9-1-1.4
	c-0.2-0.5-0.4-0.9-0.4-1.2l-0.2-1.6h6.1c0,0.3,0.1,0.6,0.2,0.9c0.1,0.2,0.3,0.5,0.6,0.7s0.7,0.3,1.2,0.3h1.4c0.9,0,1.7-0.2,2.2-0.7
	s0.8-0.9,1-1.4s0.3-1,0.3-1.7v-1.4c-0.3,0.4-0.7,0.7-1,1c-0.3,0.2-0.9,0.4-1.6,0.5s-1.4,0.2-1.9,0.2c-0.6,0-1,0-1.4,0
	c-0.8,0-1.5-0.1-2.4-0.2c-0.8-0.1-1.5-0.3-2.2-0.6s-1.2-0.7-1.6-1.2c-0.4-0.5-0.8-1.2-1-2.1c-0.3-0.9-0.4-1.9-0.4-3s0-2.2,0.1-3.4
	c0.1-1.3,0.3-2.3,0.6-3s0.7-1.4,1.2-1.8c0.5-0.5,1-0.8,1.6-1.1s1.4-0.4,2.6-0.4h2.5c0.9,0,1.7,0,2.4,0.1s1.2,0.2,1.5,0.4l1.1,0.6v-1
	L166.6,51.3L166.6,51.3z M162,63.4h1.9c0.5,0,1-0.1,1.4-0.2c0.4-0.2,0.8-0.4,1-0.8c0.2-0.4,0.3-0.9,0.3-1.5v-2.7
	c0-0.5-0.1-1-0.2-1.3c-0.2-0.3-0.4-0.6-0.8-0.9c-0.4-0.2-1-0.3-1.8-0.3h-1.2c-1,0-1.8,0.1-2.2,0.3s-0.8,0.6-1,1.1
	c-0.2,0.6-0.3,1.5-0.3,2.7s0.1,2.1,0.3,2.4c0.2,0.3,0.5,0.6,0.9,0.8S161.2,63.4,162,63.4z"/>
<path id="XMLID_2504_" class="st0" d="M195,58.6c0.6,0,1.2,0.2,1.8,0.5s1,0.7,1.4,1.3c0.3,0.6,0.5,1.2,0.5,1.8
	c0,0.7-0.2,1.3-0.5,1.8c-0.3,0.6-0.7,1-1.3,1.3c-0.6,0.3-1.2,0.5-1.8,0.5c-0.7,0-1.3-0.2-1.8-0.5s-1-0.7-1.3-1.3
	c-0.3-0.6-0.5-1.2-0.5-1.8c0-0.7,0.2-1.3,0.5-1.8c0.3-0.6,0.8-1,1.4-1.3S194.4,58.7,195,58.6z"/>
<path id="XMLID_2506_" class="st0" d="M218.8,53.1h2.1v-3.9h6v3.9h8.1l-1.5,4.3h-6.6v6c0,1,0,1.6,0.1,1.9s0.2,0.6,0.4,0.9
	s0.6,0.3,1.1,0.2c0.3-0.1,0.5-0.2,0.8-0.5c0.2-0.3,0.4-0.6,0.3-0.9v-1.4h5.6c0,0.6-0.1,1.2-0.1,1.9c0,0.6-0.1,1.3-0.3,1.9
	s-0.4,1.2-0.7,1.6c-0.3,0.5-0.8,0.8-1.2,1.1c-0.5,0.3-1,0.5-1.6,0.5c-0.6,0.1-1.6,0.1-2.8,0.1c-1.7,0-3-0.1-3.9-0.2
	s-1.6-0.5-2.1-0.9s-0.9-1-1.1-1.6c-0.2-0.6-0.4-1.1-0.4-1.5s0-1.5,0-3.5v-5.6h-2.1v-4.3C218.9,53.1,218.8,53.1,218.8,53.1z"/>
<path id="XMLID_2508_" class="st0" d="M268.6,58.2v5c0,0.7,0,1.3-0.1,1.9s-0.2,1.3-0.4,1.9c-0.2,0.6-0.5,1.1-0.8,1.4
	c-0.3,0.4-0.8,0.6-1.3,0.8c-0.5,0.2-1.1,0.4-1.7,0.5s-1.3,0.2-2.1,0.2h-6.5c-0.6,0-1.2-0.1-1.8-0.2s-1.1-0.3-1.6-0.5
	s-0.9-0.5-1.2-0.8s-0.5-0.7-0.8-1.2c-0.2-0.5-0.4-1.1-0.5-1.8s-0.2-1.5-0.2-2.3v-5c0-0.7,0.1-1.4,0.2-2c0.1-0.6,0.3-1.1,0.5-1.5
	s0.5-0.7,0.9-1c0.3-0.3,0.8-0.6,1.3-0.7c0.5-0.2,1.1-0.4,1.7-0.5s1.2-0.2,1.7-0.2h6.4c0.7,0,1.4,0.1,2,0.2c0.7,0.1,1.2,0.3,1.7,0.5
	s0.9,0.5,1.2,0.8c0.3,0.3,0.6,0.7,0.7,1.1c0.2,0.4,0.3,0.9,0.5,1.5C268.6,57,268.6,57.6,268.6,58.2z M259.6,57.1h-0.9
	c-0.5,0-0.9,0-1.2,0.1c-0.3,0.1-0.6,0.2-0.9,0.4s-0.5,0.5-0.7,0.9s-0.3,0.8-0.3,1.2v2.6c0,0.4,0.1,0.9,0.2,1.3s0.3,0.7,0.6,0.9
	c0.2,0.2,0.6,0.4,0.9,0.5c0.4,0.1,0.8,0.2,1.4,0.2h0.9c0.5,0,0.9-0.1,1.3-0.3s0.6-0.4,0.8-0.6s0.3-0.5,0.4-0.9s0.1-0.7,0.1-1.1v-2.7
	c0-0.5-0.1-0.9-0.3-1.3c-0.2-0.4-0.4-0.6-0.6-0.8s-0.5-0.3-0.7-0.4C260.3,57.1,260,57.1,259.6,57.1z"/>
<path id="XMLID_2511_" class="st0" d="M287.3,75.6l-6,1.4V52.3h6v1c0.4-0.3,0.7-0.5,1.1-0.7s0.9-0.3,1.6-0.4s1.5-0.1,2.5-0.1
	s1.7,0,2.1,0c1.1,0,2.1,0.2,3,0.5c0.8,0.3,1.5,0.7,1.9,1.2s0.7,1,0.9,1.6c0.2,0.6,0.3,1.4,0.4,2.4s0.1,1.8,0.1,2.3s0,1.4-0.1,2.8
	c-0.1,1.5-0.2,2.5-0.4,3c-0.2,0.5-0.4,1-0.7,1.4s-0.7,0.8-1.2,1.2c-0.5,0.4-1.3,0.7-2.5,0.9s-2,0.3-2.4,0.3c-0.7,0-1.4,0-2.2-0.1
	c-0.8-0.1-1.5-0.2-2.1-0.4c-0.6-0.2-1-0.4-1.3-0.6l-0.6-0.5L287.3,75.6L287.3,75.6z M291.3,64.9c0.7,0,1.2-0.1,1.5-0.3
	c0.3-0.2,0.6-0.4,0.8-0.7c0.2-0.3,0.4-0.7,0.4-1.1c0.1-0.4,0.1-1,0.1-1.7c0-0.8,0-1.4-0.1-1.8c-0.1-0.4-0.2-0.8-0.3-1.1
	c-0.1-0.3-0.3-0.6-0.6-0.9s-0.5-0.4-0.8-0.5s-0.6-0.1-1-0.1s-0.8,0-1.3,0s-0.9,0.1-1.3,0.2s-0.7,0.3-1,0.7s-0.4,0.9-0.4,1.5v2.1
	c0,1.1,0,1.9,0.1,2.2s0.2,0.6,0.4,0.8c0.2,0.2,0.4,0.4,0.8,0.5s0.7,0.3,1.2,0.3S290.7,65,291.3,64.9z"/>
<g>
	<path class="st1" d="M16.8,30.8L16.8,30.8l-0.2-17.7h15.7c0.7,0,1.4,0,2.1,0L46.3,1.2C45.9,1,45.6,1,45.2,0.8
		C42.6,0.4,39.4,0,35.9,0H0v47.5L16.8,30.8z"/>
	<path class="st1" d="M60.1,41.7c-2.3-3.4-5.8-5.7-10.4-6.9c6.9-3.4,10.4-8.5,10.4-15.9c0-3.7-0.7-6.7-1.9-9.2
		c-0.9-1.8-1.9-3.2-3.4-4.2l-12,12c0.7,1.2,1.1,2.7,1.1,4.4c0,3-0.9,5.3-2.8,6.9c-1.8,1.4-4.2,2.1-7.4,2.1h-4.2L17.9,42.4h17
		c8,0,12,3.5,12,10.8c0,6.7-4.1,10.1-12.4,10.1H16.8V43.5L0,60.1V76h36.8c2.8,0,5.5-0.2,8.1-0.7c2.7-0.5,4.9-1.4,7.2-2.5
		c2.3-1.2,4.2-2.7,6-4.2c1.6-1.8,3-3.7,4.1-6.2s1.4-5.1,1.4-8.3C63.6,49.1,62.4,45.1,60.1,41.7z"/>
</g>
</svg>
